<svg width="167" height="24" viewBox="0 0 167 24" fill="none" xmlns="http://www.w3.org/2000/svg">
<path d="M13.048 1.944C11.1067 1.19733 9.272 0.823999 7.544 0.823999C5.83733 0.823999 4.504 1.18667 3.544 1.912C2.584 2.63733 2.104 3.64 2.104 4.92C2.104 6.47733 2.91467 7.68267 4.536 8.536C5.26133 8.89867 6.05067 9.24 6.904 9.56C7.77867 9.85867 8.65333 10.2 9.528 10.584C10.4027 10.968 11.2027 11.4053 11.928 11.896C12.6533 12.3867 13.24 13.0693 13.688 13.944C14.136 14.7973 14.36 15.896 14.36 17.24C14.36 18.5627 13.9867 19.6933 13.24 20.632C12.4933 21.5707 11.5867 22.2107 10.52 22.552C9.47467 22.872 8.248 23.032 6.84 23.032C4.216 23.032 1.976 22.3813 0.12 21.08L0.28 20.824C0.984 21.3787 1.89067 21.8373 3 22.2C4.13067 22.5413 5.28267 22.712 6.456 22.712C8.184 22.712 9.656 22.3173 10.872 21.528C12.1093 20.7173 12.728 19.5333 12.728 17.976C12.728 16.2693 11.9173 14.936 10.296 13.976C9.57067 13.5493 8.77067 13.1547 7.896 12.792C7.04267 12.4293 6.17867 12.056 5.304 11.672C4.42933 11.2667 3.62933 10.8187 2.904 10.328C1.28267 9.26133 0.472 7.74667 0.472 5.784C0.472 4.22667 0.994667 2.968 2.04 2.008C3.08533 1.02667 4.65333 0.535999 6.744 0.535999C8.856 0.535999 11 0.898666 13.176 1.624L13.048 1.944ZM19.7248 23H17.0688V0.599998H19.7248V10.904H30.1248V0.599998H32.7808V23H30.1248V11.224H19.7248V23ZM35.6625 12.344C35.6625 8.46133 36.6012 5.51733 38.4785 3.512C40.3772 1.48533 42.8092 0.471998 45.7745 0.471998C48.7398 0.471998 51.0972 1.34667 52.8465 3.096C54.6172 4.84533 55.5025 7.64 55.5025 11.48C55.5025 15.32 54.5638 18.2213 52.6865 20.184C50.8092 22.1467 48.3025 23.128 45.1665 23.128C42.4572 23.128 40.2385 22.3493 38.5105 20.792C37.6145 19.9813 36.9105 18.8613 36.3985 17.432C35.9078 15.9813 35.6625 14.2853 35.6625 12.344ZM45.6785 0.792C43.5238 0.792 41.7532 1.752 40.3665 3.672C39.0012 5.592 38.3185 8.408 38.3185 12.12C38.3185 15.832 38.9692 18.5413 40.2705 20.248C41.5718 21.9547 43.2998 22.808 45.4545 22.808C47.6305 22.808 49.4012 21.848 50.7665 19.928C52.1532 17.9867 52.8465 15.1813 52.8465 11.512C52.8465 7.82133 52.1852 5.112 50.8625 3.384C49.5612 1.656 47.8332 0.792 45.6785 0.792ZM59.0213 0.855999C61.4959 0.685332 63.6719 0.599998 65.5493 0.599998C70.8399 0.599998 73.4853 2.46667 73.4853 6.2C73.4853 7.928 73.0373 9.44267 72.1413 10.744C71.6719 11.448 70.9466 12.0133 69.9653 12.44C68.9839 12.8453 67.7999 13.048 66.4133 13.048H61.6773V23H59.0213V0.855999ZM65.5813 0.919998C64.3439 0.919998 63.0426 0.994665 61.6773 1.144V12.728H66.4133C69.4213 12.6 70.9253 10.4453 70.9253 6.264C70.9253 4.55733 70.4773 3.24533 69.5813 2.328C68.6853 1.38933 67.3519 0.919998 65.5813 0.919998ZM77.0138 23.128C76.7364 23.128 76.4911 23.032 76.2778 22.84C76.0858 22.6267 75.9898 22.3813 75.9898 22.104C75.9898 21.8053 76.0858 21.56 76.2778 21.368C76.4698 21.176 76.7044 21.08 76.9818 21.08C77.2804 21.08 77.5258 21.1867 77.7178 21.4C77.9311 21.592 78.0378 21.8267 78.0378 22.104C78.0378 22.3813 77.9311 22.6267 77.7178 22.84C77.5258 23.032 77.2911 23.128 77.0138 23.128ZM92.673 1.944C90.7317 1.19733 88.897 0.823999 87.169 0.823999C85.4623 0.823999 84.129 1.18667 83.169 1.912C82.209 2.63733 81.729 3.64 81.729 4.92C81.729 6.47733 82.5397 7.68267 84.161 8.536C84.8863 8.89867 85.6757 9.24 86.529 9.56C87.4037 9.85867 88.2783 10.2 89.153 10.584C90.0277 10.968 90.8277 11.4053 91.553 11.896C92.2783 12.3867 92.865 13.0693 93.313 13.944C93.761 14.7973 93.985 15.896 93.985 17.24C93.985 18.5627 93.6117 19.6933 92.865 20.632C92.1183 21.5707 91.2117 22.2107 90.145 22.552C89.0997 22.872 87.873 23.032 86.465 23.032C83.841 23.032 81.601 22.3813 79.745 21.08L79.905 20.824C80.609 21.3787 81.5157 21.8373 82.625 22.2C83.7557 22.5413 84.9077 22.712 86.081 22.712C87.809 22.712 89.281 22.3173 90.497 21.528C91.7343 20.7173 92.353 19.5333 92.353 17.976C92.353 16.2693 91.5423 14.936 89.921 13.976C89.1957 13.5493 88.3957 13.1547 87.521 12.792C86.6677 12.4293 85.8037 12.056 84.929 11.672C84.0543 11.2667 83.2543 10.8187 82.529 10.328C80.9077 9.26133 80.097 7.74667 80.097 5.784C80.097 4.22667 80.6197 2.968 81.665 2.008C82.7103 1.02667 84.2783 0.535999 86.369 0.535999C88.481 0.535999 90.625 0.898666 92.801 1.624L92.673 1.944ZM103.933 23H101.277V0.919998H95.7413V0.599998H109.501V0.919998H103.933V23ZM110.163 12.344C110.163 8.46133 111.101 5.51733 112.979 3.512C114.877 1.48533 117.309 0.471998 120.275 0.471998C123.24 0.471998 125.597 1.34667 127.347 3.096C129.117 4.84533 130.003 7.64 130.003 11.48C130.003 15.32 129.064 18.2213 127.187 20.184C125.309 22.1467 122.803 23.128 119.667 23.128C116.957 23.128 114.739 22.3493 113.011 20.792C112.115 19.9813 111.411 18.8613 110.899 17.432C110.408 15.9813 110.163 14.2853 110.163 12.344ZM120.179 0.792C118.024 0.792 116.253 1.752 114.867 3.672C113.501 5.592 112.819 8.408 112.819 12.12C112.819 15.832 113.469 18.5413 114.771 20.248C116.072 21.9547 117.8 22.808 119.955 22.808C122.131 22.808 123.901 21.848 125.267 19.928C126.653 17.9867 127.347 15.1813 127.347 11.512C127.347 7.82133 126.685 5.112 125.363 3.384C124.061 1.656 122.333 0.792 120.179 0.792ZM133.521 0.855999C135.996 0.685332 138.183 0.599998 140.081 0.599998C145.351 0.599998 147.985 2.36 147.985 5.88C147.985 7.37333 147.623 8.70667 146.897 9.88C146.172 11.0533 144.924 11.832 143.153 12.216L149.553 23H146.577L140.305 12.408H136.177V23H133.521V0.855999ZM140.081 0.919998C138.844 0.919998 137.543 0.994665 136.177 1.144V12.088H140.913C143.921 11.96 145.425 9.912 145.425 5.944C145.425 4.32267 144.977 3.08533 144.081 2.232C143.185 1.35733 141.852 0.919998 140.081 0.919998ZM165.476 0.599998V0.919998H155.396V10.52H164.74V10.84H155.396V22.68H166.18V23H152.74V0.599998H165.476Z" fill="black"/>
</svg>
